<svg width="640" height="640" viewBox="0 0 640 640" fill="none" xmlns="http://www.w3.org/2000/svg">
<path d="M596.239 252.477C611.537 284.197 620 319.092 620 355.729C620 501.682 485.685 620 320 620C154.315 620 20 501.682 20 355.729C20 222.882 131.275 112.929 276.199 94.2536C293.899 68.3886 331.648 17.3484 341.044 20.1075C352.79 23.5564 358.897 75.3545 376.525 78.739C405.155 84.2356 470.979 100.295 496.672 106.33C514.209 93.9716 552.512 71.2807 565.432 79.3856C582.806 206.132 483.997 370.58 338.352 283.84" stroke="white" stroke-width="40"/>
<path d="M335.662 168.735C340.719 175.202 358.517 186.195 389.251 178.435" stroke="white" stroke-width="10"/>
<path d="M451.404 191.367C456.788 199.774 478.419 211.199 509.153 203.439" stroke="white" stroke-width="10"/>
<path d="M380.44 239.519C380.44 251.51 427.912 262.072 436.477 254.311" stroke="white" stroke-width="10"/>
<path d="M403.572 252.026C405.399 249.283 410.538 245.429 408.825 225.645" stroke="white" stroke-width="10"/>
</svg>
